<?xml version="1.0" encoding="UTF-8" standalone="no"?>
<!-- Created with Inkscape (http://www.inkscape.org/) -->

<svg
   width="100mm"
   height="100mm"
   viewBox="0 0 100 100"
   version="1.1"
   id="svg5"
   inkscape:export-filename="/home/prakash/bitmap.png"
   inkscape:export-xdpi="120"
   inkscape:export-ydpi="120"
   inkscape:version="1.1.1 (3bf5ae0, 2021-09-20)"
   sodipodi:docname="hyp\.svg"
   xmlns:inkscape="http://www.inkscape.org/namespaces/inkscape"
   xmlns:sodipodi="http://sodipodi.sourceforge.net/DTD/sodipodi-0.dtd"
   xmlns="http://www.w3.org/2000/svg"
   xmlns:svg="http://www.w3.org/2000/svg">
  <sodipodi:namedview
     id="namedview7"
     pagecolor="#ffffff"
     bordercolor="#666666"
     borderopacity="1.0"
     inkscape:pageshadow="2"
     inkscape:pageopacity="0.0"
     inkscape:pagecheckerboard="0"
     inkscape:document-units="mm"
     showgrid="false"
     inkscape:zoom="0.47571549"
     inkscape:cx="-745.19331"
     inkscape:cy="302.70194"
     inkscape:window-width="1366"
     inkscape:window-height="709"
     inkscape:window-x="0"
     inkscape:window-y="27"
     inkscape:window-maximized="1"
     inkscape:current-layer="layer1" />
  <defs
     id="defs2" />
  <g
     inkscape:label="Layer 1"
     inkscape:groupmode="layer"
     id="layer1">
    <g
       data-paper-data="{&quot;isGlobalGroup&quot;:true,&quot;bounds&quot;:{&quot;x&quot;:154.8904271117667,&quot;y&quot;:115,&quot;width&quot;:240.21914577646658,&quot;height&quot;:240}}"
       id="g978"
       style="font-family:none;mix-blend-mode:normal;fill:none;stroke:none;stroke-width:1;stroke-linecap:butt;stroke-linejoin:miter;stroke-miterlimit:10;stroke-dasharray:none;stroke-dashoffset:0"
       transform="matrix(0.71562797,0,0,0.72623145,-146.22631,-77.439196)">
      <g
         data-paper-data="{&quot;isIcon&quot;:&quot;true&quot;,&quot;iconType&quot;:&quot;icon&quot;,&quot;rawIconId&quot;:&quot;1387985&quot;,&quot;selectedEffects&quot;:{&quot;container&quot;:&quot;hexagon_mask_outline3_rounded_rotated&quot;,&quot;transformation&quot;:&quot;&quot;,&quot;pattern&quot;:&quot;&quot;},&quot;fillRule&quot;:&quot;evenodd&quot;,&quot;relativeBoundsIconToContainer&quot;:{&quot;top&quot;:0,&quot;left&quot;:1.4190995835629624e-16},&quot;widthRatioIconToContainer&quot;:0.9935899407388931,&quot;heightRatioIconToContainer&quot;:1.1,&quot;bounds&quot;:{&quot;x&quot;:208.8208422001001,&quot;y&quot;:115,&quot;width&quot;:132.35831559979974,&quot;height&quot;:119.55445226766582},&quot;iconStyle&quot;:&quot;standalone&quot;,&quot;suitableAsStandaloneIcon&quot;:true}"
         fill="#f6be00"
         fill-rule="evenodd"
         id="g976">
        <path
           d="m 315.20346,224.69696 c -3.79426,6.57166 -9.4852,9.85749 -17.07283,9.85749 h -46.261 c -7.58798,0 -13.27897,-3.28583 -17.07296,-9.85749 L 211.66636,184.6339 c -3.79401,-6.57122 -3.79401,-13.14253 0,-19.71392 l 23.13031,-40.06293 C 238.59066,118.28568 244.28165,115 251.86963,115 h 46.261 c 7.58763,0 13.27858,3.28568 17.07283,9.85705 l 23.13034,40.06293 c 3.79381,6.57139 3.79381,13.1427 0,19.71392 z M 298.13063,120.08869 h -46.261 c -5.62935,0 -9.85136,2.43756 -12.66604,7.31269 l -23.13031,40.06293 c -2.81467,4.87517 -2.81467,9.75025 0,14.62524 l 9.10871,15.77683 77.23518,-77.23518 c -1.32444,-0.36168 -2.75328,-0.54251 -4.28654,-0.54251 z m -58.92705,102.06393 c 1.23314,2.13597 2.7364,3.80405 4.50978,5.00424 l 79.04181,-79.04181 -11.95904,-20.71366 c -1.233,-2.1358 -2.73612,-3.80375 -4.50938,-5.00385 l -79.04189,79.04189 z m 12.66605,7.31316 h 46.261 c 5.62927,0 9.8511,-2.43772 12.66551,-7.31315 l 23.13034,-40.06306 c 2.81485,-4.87499 2.81485,-9.75008 0,-14.62524 l -9.10846,-15.77632 -77.23519,77.23519 c 1.32452,0.36173 2.75346,0.54259 4.2868,0.54259 z"
           data-paper-data="{&quot;isPathIcon&quot;:true}"
           id="path974" />
      </g>
      <g
         data-paper-data="{&quot;isSecondaryText&quot;:true}"
         fill="#eaaa00"
         fill-rule="nonzero"
         id="g964"
         transform="matrix(0.62353786,0.01325155,-0.02862306,0.68462496,128.64841,-166.19969)"
         inkscape:transform-center-x="-2.4442173"
         inkscape:transform-center-y="-0.047015787">
        <path
           d="m 154.89043,344.98279 h 1.06652 v 6.18988 h 6.9999 v -6.18988 h 1.06652 v 9.6797 h -1.06652 v -2.3828 c 0,-0.027 -0.0135,-0.0405 -0.0405,-0.0405 h -6.95939 v 2.4233 h -1.06652 z"
           data-paper-data="{&quot;glyphName&quot;:&quot;H&quot;,&quot;glyphIndex&quot;:0,&quot;firstGlyphOfWord&quot;:true,&quot;word&quot;:1}"
           id="path936" />
        <path
           d="m 167.78094,344.98279 h 1.35003 c 0.33751,0.39151 1.31178,1.60203 2.92281,3.63158 0.198,0.24301 0.30601,0.36451 0.32401,0.36451 0,-0.0315 1.12277,-1.36353 3.36832,-3.99608 h 1.39053 l -4.25259,5.04235 v 4.63735 h -1.06652 v -4.63735 z"
           data-paper-data="{&quot;glyphName&quot;:&quot;Y&quot;,&quot;glyphIndex&quot;:1,&quot;word&quot;:1}"
           id="path938" />
        <path
           d="m 180.89422,344.98954 h 5.29886 c 1.79104,0 3.00156,0.83927 3.63158,2.5178 0.117,0.43651 0.1755,0.81902 0.1755,1.14752 v 0.28351 c 0,1.08002 -0.42301,2.02054 -1.26903,2.82156 -0.69301,0.56251 -1.45803,0.84377 -2.29505,0.84377 h -4.47534 v 2.05879 h -1.06652 z m 1.06652,1.06652 v 5.48111 h 4.41459 c 1.05302,0 1.83154,-0.51076 2.33555,-1.53228 0.1485,-0.41851 0.22275,-0.77402 0.22275,-1.06652 v -0.26326 c 0,-0.77402 -0.32176,-1.46478 -0.96527,-2.07229 -0.49501,-0.36451 -1.06652,-0.54676 -1.71454,-0.54676 z"
           data-paper-data="{&quot;glyphName&quot;:&quot;P&quot;,&quot;glyphIndex&quot;:2,&quot;word&quot;:1}"
           id="path940" />
        <path
           d="m 193.96024,344.98279 h 9.15319 v 1.06652 h -8.08667 v 7.54666 h 8.08667 v 1.06652 h -9.15319 z m 1.77529,3.89483 h 6.61514 v 1.06652 h -6.61514 z"
           data-paper-data="{&quot;glyphName&quot;:&quot;E&quot;,&quot;glyphIndex&quot;:3,&quot;word&quot;:1}"
           id="path942" />
        <path
           d="m 208.51804,344.98954 h 3.82058 c 1.41303,0 2.44355,0.42976 3.09156,1.28928 0.59401,0.71551 0.89102,1.55928 0.89102,2.5313 0,1.11152 -0.39601,2.06329 -1.18802,2.85531 0.29251,0.25201 0.43876,0.64126 0.43876,1.16777 v 1.82929 h -1.06652 v -1.91029 c 0,-0.216 -0.11925,-0.36451 -0.35776,-0.44551 h -0.0203 c -0.42751,0.2025 -1.01702,0.30376 -1.76854,0.30376 h -4.08383 v 2.05204 h -1.06652 v -9.6527 c 0.58501,-0.0135 1.02152,-0.0203 1.30953,-0.0203 z m -0.243,1.10703 v 5.40686 c 0.005,0.027 0.018,0.0405 0.0405,0.0405 h 4.06358 c 1.33653,0 2.21405,-0.52201 2.63255,-1.56603 0.162,-0.40051 0.24301,-0.79652 0.24301,-1.18802 0,-0.87302 -0.33526,-1.60428 -1.00577,-2.1938 -0.43201,-0.36001 -1.06202,-0.54001 -1.89004,-0.54001 h -4.04333 c -0.027,0.005 -0.0405,0.018 -0.0405,0.0405 z"
           data-paper-data="{&quot;glyphName&quot;:&quot;R&quot;,&quot;glyphIndex&quot;:4,&quot;word&quot;:1}"
           id="path944" />
        <path
           d="m 220.28129,344.98279 h 1.06652 v 8.57268 c 0.004,0.027 0.018,0.0405 0.0405,0.0405 h 8.04617 v 1.06652 h -9.15319 z"
           data-paper-data="{&quot;glyphName&quot;:&quot;L&quot;,&quot;glyphIndex&quot;:5,&quot;word&quot;:1}"
           id="path946" />
        <path
           d="m 230.01949,344.98279 h 1.35003 c 0.33751,0.39151 1.31178,1.60203 2.92281,3.63158 0.198,0.24301 0.30601,0.36451 0.32401,0.36451 0,-0.0315 1.12277,-1.36353 3.36832,-3.99608 h 1.39053 l -4.25259,5.04235 v 4.63735 h -1.06652 v -4.63735 z"
           data-paper-data="{&quot;glyphName&quot;:&quot;Y&quot;,&quot;glyphIndex&quot;:6,&quot;lastGlyphOfWord&quot;:true,&quot;word&quot;:1}"
           id="path948" />
        <path
           d="m 258.70983,344.82754 v 9.83495 h -1.03277 v -2.86881 h -4.35384 c -0.0585,0 -0.1755,0.1035 -0.35101,0.31051 -0.0405,0.0315 -0.89327,0.88427 -2.5583,2.5583 h -1.44453 v -0.0202 c 5.24261,-5.30111 8.48943,-8.57268 9.74045,-9.8147 z m -4.40784,5.92662 v 0.0202 h 3.37507 v -3.42907 c -1.46253,1.46253 -2.58755,2.5988 -3.37507,3.40882 z"
           data-paper-data="{&quot;glyphName&quot;:&quot;A&quot;,&quot;glyphIndex&quot;:7,&quot;firstGlyphOfWord&quot;:true,&quot;word&quot;:2}"
           id="path950" />
        <path
           d="m 269.1973,344.08502 h 0.0135 l 2.99706,8.04617 h 0.0203 l 2.6393,-7.10115 h 1.07327 l -3.71258,9.96321 h -0.0202 c -0.0225,-0.09 -1.02152,-2.76531 -2.99706,-8.02592 h -0.0135 l -2.97681,8.01242 h -0.0405 c -0.036,-0.1305 -1.27353,-3.44707 -3.71258,-9.94971 h 1.05302 c 0.027,0 0.19125,0.42526 0.49276,1.27578 1.24203,3.29407 1.96429,5.22911 2.1668,5.80512 h 0.0405 l 2.97681,-8.00567 z"
           data-paper-data="{&quot;glyphName&quot;:&quot;W&quot;,&quot;glyphIndex&quot;:8,&quot;word&quot;:2}"
           id="path952" />
        <path
           d="m 279.69827,344.98279 h 9.15319 v 1.06652 h -8.08667 v 7.54666 h 8.08667 v 1.06652 h -9.15319 z m 1.77529,3.89483 h 6.61514 v 1.06652 h -6.61514 z"
           data-paper-data="{&quot;glyphName&quot;:&quot;E&quot;,&quot;glyphIndex&quot;:9,&quot;word&quot;:2}"
           id="path954" />
        <path
           d="m 295.03234,344.98954 h 6.75689 v 1.06652 h -6.81764 c -0.60751,0 -0.99002,0.20025 -1.14752,0.60076 -0.054,0.1845 -0.081,0.32626 -0.081,0.42526 v 0.162 c 0.09,0.68401 0.41851,1.02602 0.98552,1.02602 h 4.50234 c 1.40853,0 2.3738,0.67051 2.89581,2.01154 0.135,0.36001 0.2025,0.76052 0.2025,1.20152 0,0.99002 -0.35551,1.81579 -1.06652,2.4773 -0.52651,0.46801 -1.21728,0.70201 -2.07229,0.70201 h -5.99412 v -1.06652 h 6.03463 c 0.62551,0 1.11602,-0.1935 1.47153,-0.58051 0.37351,-0.43651 0.56026,-0.95402 0.56026,-1.55253 0,-0.95402 -0.40276,-1.61778 -1.20828,-1.99129 -0.24751,-0.09 -0.52201,-0.135 -0.82352,-0.135 h -4.52259 c -0.88202,0 -1.51203,-0.44326 -1.89004,-1.32978 -0.0945,-0.25651 -0.14175,-0.49051 -0.14175,-0.70201 v -0.28351 c 0,-0.61201 0.26776,-1.14752 0.80327,-1.60653 0.32401,-0.28351 0.84152,-0.42526 1.55253,-0.42526 z"
           data-paper-data="{&quot;glyphName&quot;:&quot;S&quot;,&quot;glyphIndex&quot;:10,&quot;word&quot;:2}"
           id="path956" />
        <path
           d="m 311.18992,344.65204 c 1.31853,0 2.5043,0.47026 3.55732,1.41078 1.07552,1.08002 1.61328,2.32655 1.61328,3.73958 0,1.77304 -0.76727,3.21982 -2.3018,4.34034 -0.91352,0.56701 -1.83604,0.85052 -2.76756,0.85052 h -0.2025 c -1.48953,0 -2.80131,-0.63901 -3.93533,-1.91704 -0.51301,-0.75152 -0.76952,-1.21053 -0.76952,-1.37703 -0.24301,-0.54901 -0.36451,-1.18802 -0.36451,-1.91704 0,-1.29603 0.47701,-2.47505 1.43103,-3.53707 1.08002,-1.06202 2.32655,-1.59303 3.73958,-1.59303 z m -4.09733,5.2111 c 0,1.23753 0.53101,2.30855 1.59303,3.21307 0.78302,0.56251 1.59078,0.84377 2.4233,0.84377 h 0.162 c 1.00352,0 1.92604,-0.38251 2.76756,-1.14752 0.83252,-0.84152 1.24878,-1.82479 1.24878,-2.94981 0,-1.28253 -0.53776,-2.36705 -1.61328,-3.25357 -0.76952,-0.56251 -1.59753,-0.84377 -2.48405,-0.84377 -1.27353,0 -2.35805,0.53776 -3.25357,1.61328 -0.56251,0.75602 -0.84377,1.59753 -0.84377,2.52455 z"
           data-paper-data="{&quot;glyphName&quot;:&quot;O&quot;,&quot;glyphIndex&quot;:11,&quot;word&quot;:2}"
           id="path958" />
        <path
           d="m 320.32061,344.13227 h 0.0203 l 4.74535,8.65368 h 0.0203 c 0.0315,-0.018 0.42301,-0.72902 1.17452,-2.13304 0.55351,-0.96752 1.75054,-3.14107 3.59107,-6.52064 h 0.0202 v 10.53022 h -1.05977 v -6.39913 h -0.0135 L 325.1267,355 h -0.0405 l -3.69233,-6.73664 h -0.0135 v 6.39913 h -1.05977 z"
           data-paper-data="{&quot;glyphName&quot;:&quot;M&quot;,&quot;glyphIndex&quot;:12,&quot;word&quot;:2}"
           id="path960" />
        <path
           d="m 334.1224,344.98279 h 9.15319 v 1.06652 h -8.08667 v 7.54666 h 8.08667 v 1.06652 h -9.15319 z m 1.77529,3.89483 h 6.61514 v 1.06652 h -6.61514 z"
           data-paper-data="{&quot;glyphName&quot;:&quot;E&quot;,&quot;glyphIndex&quot;:13,&quot;lastGlyphOfWord&quot;:true,&quot;word&quot;:2}"
           id="path962" />
      </g>
      <text
         xml:space="preserve"
         style="font-size:14.6805px;line-height:1.25;font-family:System-ui;-inkscape-font-specification:System-ui;stroke-width:0.367013"
         x="183.99644"
         y="268.13385"
         id="text13664"
         transform="scale(1.0073813,0.99267282)"><tspan
           sodipodi:role="line"
           id="tspan13662"
           style="stroke-width:0.367013"
           x="183.99644"
           y="268.13385">HYP</tspan></text>
    </g>
    <path
       style="fill:#00ffff;fill-rule:evenodd;stroke:#ffffff;stroke-width:2.10541"
       d="m 55.094294,245.26346 c -1.054683,-1.3592 -7.497242,-12.40369 -14.316797,-24.5433 -10.952528,-19.49679 -12.39919,-23.42094 -12.39919,-33.63355 0,-11.00101 1.469459,-14.1603 30.309692,-65.165 41.352211,-73.132443 42.693371,-75.144308 53.304201,-79.96115 8.18506,-3.715654 14.45046,-4.03399 80.23337,-4.076552 l 71.355,-0.04617 -24.05782,24.695778 C 129.45266,175.52237 56.819416,247.48669 55.094294,245.26346 Z"
       id="path1145"
       transform="scale(0.26458333)"
       inkscape:export-filename="/home/prakash/path1145.png"
       inkscape:export-xdpi="120"
       inkscape:export-ydpi="120" />
    <path
       style="fill:#ff00ff;fill-rule:evenodd;stroke:#ffffff;stroke-width:2.10541"
       d="m 130.49756,324.24843 c 6.20834,-6.64788 52.61701,-54.01022 103.13038,-105.24964 l 91.84248,-93.16258 8.87539,15.19675 c 4.88145,8.35822 11.66998,20.48415 15.08561,26.94653 10.25325,19.3992 9.39915,22.10073 -27.6755,87.53775 -39.40594,69.55177 -40.54457,71.24455 -51.48377,76.54013 -8.3544,4.0443 -12.72412,4.27812 -79.94995,4.27812 h -71.11253 z"
       id="path1299"
       transform="scale(0.26458333)"
       inkscape:export-filename="/home/prakash/path1145.png"
       inkscape:export-xdpi="120"
       inkscape:export-ydpi="120" />
    <path
       style="fill:#000080;fill-rule:evenodd;stroke:#ffffff;stroke-width:2.10541"
       d="M 100.22147,323.24916 C 93.420456,314.20497 65.165,263.98623 65.165,260.94288 c 0,-2.98144 207.2004,-213.426534 210.95517,-214.258638 1.52118,-0.337115 5.18854,2.973688 8.1497,7.357339 7.4911,11.08972 33.14675,56.376459 33.14675,58.509839 0,2.15179 -15.61945,18.30596 -125.45382,129.74869 l -86.56503,87.83264 z"
       id="path1412"
       transform="scale(0.26458333)"
       inkscape:export-filename="/home/prakash/path1145.png"
       inkscape:export-xdpi="120"
       inkscape:export-ydpi="120" />
    <path
       style="fill:#ff00ff;fill-rule:evenodd;stroke:#ffffff;stroke-width:2.10541"
       d="M 47.946858,228.60303 C 28.920381,195.6304 27.014461,185.35022 36.46886,166.69286 44.944621,149.96675 92.425492,67.124634 99.175934,57.28487 110.35804,40.985297 109.887,41.075401 187.79005,40.334096 c 62.98247,-0.599324 68.85566,-0.360316 67.12532,2.731644 -2.33734,4.176588 -196.247453,198.67539 -198.074063,198.67539 -0.722291,0 -4.724795,-5.91215 -8.894449,-13.1381 z"
       id="path1451"
       transform="scale(0.26458333)"
       inkscape:export-filename="/home/prakash/path1145.png"
       inkscape:export-xdpi="120"
       inkscape:export-ydpi="120" />
    <path
       style="fill:#ff00ff;fill-rule:evenodd;stroke:#ffffff;stroke-width:2.10541"
       d="M 44.399769,216.41516 C 31.682327,191.46537 30.733915,182.76175 39.004682,166.90425 55.699387,134.89559 98.816064,61.402575 105.11515,54.217981 c 7.23381,-8.250717 7.71615,-8.438328 26.55205,-10.327647 10.55143,-1.058352 42.06544,-1.670718 70.03115,-1.360813 l 50.84674,0.563463 -96.91782,97.221976 c -53.30481,53.47209 -97.715103,97.22198 -98.689553,97.22198 -0.97445,0 -6.616527,-9.5048 -12.537948,-21.12178 z"
       id="path1527"
       transform="scale(0.26458333)"
       inkscape:export-filename="/home/prakash/path1145.png"
       inkscape:export-xdpi="120"
       inkscape:export-ydpi="120" />
    <path
       style="fill:#ffff00;fill-rule:evenodd;stroke:#ffffff;stroke-width:2.10541"
       d="M 55.085667,230.6991 C 53.888388,229.25647 48.981002,220.03592 44.180366,210.20899 32.588493,186.48037 33.098288,182.23665 51.558134,148.79367 75.209492,105.94544 104.35327,58.118505 110.04735,52.808865 c 7.21768,-6.730368 24.59411,-8.407687 88.59042,-8.551491 l 50.43995,-0.113341 -79.8693,80.016317 C 73.891578,219.65263 58.129755,234.36701 55.085667,230.6991 Z"
       id="path1677"
       transform="scale(0.26458333)"
       inkscape:export-filename="/home/prakash/path1145.png"
       inkscape:export-xdpi="120"
       inkscape:export-ydpi="120" />
    <path
       style="fill:#ffff00;fill-rule:evenodd;stroke:#ffffff;stroke-width:2.10541"
       d="m 102.72173,322.38051 c -3.479878,-3.96494 -23.45005,-38.0221 -31.181434,-53.17685 l -4.217308,-8.26662 82.794202,-84.74791 c 45.5368,-46.61136 92.69227,-94.534732 104.78993,-106.496392 l 21.99572,-21.748471 4.83093,6.784395 c 2.65699,3.731418 11.2643,18.16228 19.12732,32.068581 l 14.29642,25.284187 -16.72905,18.0582 c -9.20098,9.932 -56.22635,58.12969 -104.50082,107.10596 -83.62005,84.8357 -87.93419,88.86269 -91.20591,85.13492 z"
       id="path1716"
       transform="scale(0.26458333)"
       inkscape:export-filename="/home/prakash/path1145.png"
       inkscape:export-xdpi="120"
       inkscape:export-ydpi="120" />
    <path
       style="fill:#ff00ff;fill-rule:evenodd;stroke:#ffffff;stroke-width:2.10541"
       d="m 126.47616,332.29832 c 1.69037,-4.66819 198.03728,-202.01156 199.48724,-200.49964 4.95367,5.16533 27.18886,48.66992 27.18886,53.19678 0,2.9496 -3.35215,12.4308 -7.44924,21.06933 -12.08901,25.48916 -60.33001,109.23009 -67.19976,116.65119 -3.48198,3.76143 -10.10358,7.88634 -14.71468,9.16646 -10.41528,2.89147 -138.34915,3.27894 -137.31242,0.41588 z"
       id="path1755"
       transform="scale(0.26458333)"
       inkscape:export-filename="/home/prakash/path1145.png"
       inkscape:export-xdpi="120"
       inkscape:export-ydpi="120" />
    <path
       style="fill:#00ffff;fill-rule:evenodd;stroke:#ffffff;stroke-width:2.10541"
       d="M 91.781399,300.07432 C 85.503421,289.3799 77.920223,276.38446 74.929847,271.19556 l -5.437046,-9.43435 29.953419,-30.50548 c 16.47438,-16.77802 62.90959,-64.05165 103.18935,-105.05251 l 73.23594,-74.547026 3.81217,4.70784 c 2.0967,2.589311 10.11714,15.688518 17.8232,29.109347 12.85817,22.393669 13.78738,24.819399 11.29301,29.480179 -3.96689,7.41219 -199.36698,204.56515 -202.74638,204.56515 -1.57169,0 -7.994132,-8.74998 -14.272111,-19.44439 z"
       id="path1868"
       transform="scale(0.26458333)"
       inkscape:export-filename="/home/prakash/path1145.png"
       inkscape:export-xdpi="120"
       inkscape:export-ydpi="120" />
    <path
       style="fill:#ff00ff;fill-rule:evenodd;stroke:#ffffff;stroke-width:2.10541"
       d="M 51.534395,219.9151 C 43.358734,205.96439 37.560855,187.9481 39.097899,181.27001 42.283954,167.42736 97.661212,70.955285 110.31182,57.209066 c 5.87446,-6.383212 7.7839,-7.062029 25.27342,-8.98483 10.40538,-1.143969 38.78369,-1.820544 63.06291,-1.503501 l 44.14403,0.576443 -85.13492,84.842602 c -46.82421,46.66343 -88.623159,87.60821 -92.886562,90.98839 l -7.751642,6.1458 z"
       id="path1944"
       transform="scale(0.26458333)"
       inkscape:export-filename="/home/prakash/path1145.png"
       inkscape:export-xdpi="120"
       inkscape:export-ydpi="120" />
    <path
       style="fill:#00ff00;fill-rule:evenodd;stroke:#ffffff;stroke-width:2.10541"
       d="M 94.273603,299.39671 C 87.922286,289.07497 80.528366,276.67386 77.842668,271.83868 l -4.883087,-8.79126 5.710273,-6.78628 C 92.962166,239.2757 274.36342,56.767535 276.32292,57.402005 c 3.61583,1.170777 30.55902,48.353065 30.57161,53.536295 0.008,3.5048 -26.8479,31.82332 -100.53074,106.00379 l -100.54234,101.2214 z"
       id="path2057"
       transform="scale(0.26458333)"
       inkscape:export-filename="/home/prakash/path1145.png"
       inkscape:export-xdpi="120"
       inkscape:export-ydpi="120" />
    <path
       style="fill:#ff00ff;fill-rule:evenodd;stroke:#ffffff;stroke-width:2.10541;fill-opacity:1"
       d="m 91.036555,289.44187 -15.094229,-25.35446 3.856593,-5.41609 c 2.121126,-2.97885 46.990981,-48.91882 99.710791,-102.08882 92.09757,-92.884029 95.98305,-96.507974 99.14188,-92.468548 3.89603,4.982133 22.74083,38.304568 24.70345,43.682028 1.79733,4.92457 -3.61784,10.76312 -109.85695,118.44586 l -87.36731,88.55451 z"
       id="path2490"
       transform="scale(0.26458333)"
       inkscape:export-filename="/home/prakash/path1145.png"
       inkscape:export-xdpi="120"
       inkscape:export-ydpi="120" />
    <path
       style="fill:#4d4d4d;fill-opacity:1;fill-rule:evenodd;stroke:#ffffff;stroke-width:2.10541"
       d="m 93.017783,288.99116 c -7.225958,-12.30057 -13.138105,-23.71235 -13.138105,-25.35952 0,-3.06439 181.493242,-187.285962 191.607732,-194.488117 l 5.58907,-3.97977 9.81111,16.7351 c 16.76235,28.592007 16.7375,26.731957 0.59555,44.592787 -7.65482,8.46994 -51.58497,53.52935 -97.62255,100.13203 l -83.7047,84.73214 z"
       id="path9383"
       transform="scale(0.26458333)"
       inkscape:export-filename="/home/prakash/path1145.png"
       inkscape:export-xdpi="120"
       inkscape:export-ydpi="120" />
    <text
       xml:space="preserve"
       style="font-style:normal;font-variant:normal;font-weight:bold;font-stretch:normal;font-size:15.2967px;line-height:1.25;font-family:FreeMono;-inkscape-font-specification:'FreeMono Bold';fill:#ffffff;stroke-width:0.382419"
       x="-7.9961452"
       y="74.946304"
       id="text16680"
       transform="matrix(0.71898813,-0.69342788,0.66649232,0.74804524,0,0)"
       inkscape:transform-center-y="3.3054449"
       inkscape:transform-center-x="1.9383686e-05"
       inkscape:export-filename="/home/prakash/path1145.png"
       inkscape:export-xdpi="120"
       inkscape:export-ydpi="120"><tspan
         sodipodi:role="line"
         id="tspan16678"
         style="font-style:normal;font-variant:normal;font-weight:bold;font-stretch:normal;font-family:FreeMono;-inkscape-font-specification:'FreeMono Bold';fill:#ffffff;stroke-width:0.382419"
         x="-7.9961452"
         y="74.946304">HYP</tspan></text>
  </g>
</svg>
