<?xml version="1.0" encoding="UTF-8" standalone="no"?>
<!-- Created with Inkscape (http://www.inkscape.org/) -->

<svg
   width="120"
   height="120"
   viewBox="0 0 120 120"
   version="1.1"
   id="svg5"
   inkscape:version="1.1.1 (3bf5ae0, 2021-09-20)"
   sodipodi:docname="hypp.svg"
   xmlns:inkscape="http://www.inkscape.org/namespaces/inkscape"
   xmlns:sodipodi="http://sodipodi.sourceforge.net/DTD/sodipodi-0.dtd"
   xmlns="http://www.w3.org/2000/svg"
   xmlns:svg="http://www.w3.org/2000/svg">
  <sodipodi:namedview
     id="namedview7"
     pagecolor="#ffffff"
     bordercolor="#666666"
     borderopacity="1.0"
     inkscape:pageshadow="2"
     inkscape:pageopacity="0.0"
     inkscape:pagecheckerboard="0"
     inkscape:document-units="px"
     showgrid="false"
     inkscape:zoom="2.225"
     inkscape:cx="59.550562"
     inkscape:cy="26.516854"
     inkscape:window-width="1366"
     inkscape:window-height="709"
     inkscape:window-x="0"
     inkscape:window-y="27"
     inkscape:window-maximized="1"
     inkscape:current-layer="layer1-5" />
  <defs
     id="defs2" />
  <g
     inkscape:label="Layer 1"
     inkscape:groupmode="layer"
     id="layer1">
    <g
       inkscape:label="Layer 1"
       id="layer1-5"
       transform="matrix(1.1952052,0,0,1.1723697,0.16368758,2.0674754)">
      <g
         data-paper-data="{&quot;isGlobalGroup&quot;:true,&quot;bounds&quot;:{&quot;x&quot;:154.8904271117667,&quot;y&quot;:115,&quot;width&quot;:240.21914577646658,&quot;height&quot;:240}}"
         id="g978"
         style="font-family:none;mix-blend-mode:normal;fill:none;stroke:none;stroke-width:1;stroke-linecap:butt;stroke-linejoin:miter;stroke-miterlimit:10;stroke-dasharray:none;stroke-dashoffset:0"
         transform="matrix(0.71562797,0,0,0.72623145,-146.22631,-77.439196)">
        <g
           data-paper-data="{&quot;isIcon&quot;:&quot;true&quot;,&quot;iconType&quot;:&quot;icon&quot;,&quot;rawIconId&quot;:&quot;1387985&quot;,&quot;selectedEffects&quot;:{&quot;container&quot;:&quot;hexagon_mask_outline3_rounded_rotated&quot;,&quot;transformation&quot;:&quot;&quot;,&quot;pattern&quot;:&quot;&quot;},&quot;fillRule&quot;:&quot;evenodd&quot;,&quot;relativeBoundsIconToContainer&quot;:{&quot;top&quot;:0,&quot;left&quot;:1.4190995835629624e-16},&quot;widthRatioIconToContainer&quot;:0.9935899407388931,&quot;heightRatioIconToContainer&quot;:1.1,&quot;bounds&quot;:{&quot;x&quot;:208.8208422001001,&quot;y&quot;:115,&quot;width&quot;:132.35831559979974,&quot;height&quot;:119.55445226766582},&quot;iconStyle&quot;:&quot;standalone&quot;,&quot;suitableAsStandaloneIcon&quot;:true}"
           fill="#f6be00"
           fill-rule="evenodd"
           id="g976">
          <path
             d="m 315.20346,224.69696 c -3.79426,6.57166 -9.4852,9.85749 -17.07283,9.85749 h -46.261 c -7.58798,0 -13.27897,-3.28583 -17.07296,-9.85749 L 211.66636,184.6339 c -3.79401,-6.57122 -3.79401,-13.14253 0,-19.71392 l 23.13031,-40.06293 C 238.59066,118.28568 244.28165,115 251.86963,115 h 46.261 c 7.58763,0 13.27858,3.28568 17.07283,9.85705 l 23.13034,40.06293 c 3.79381,6.57139 3.79381,13.1427 0,19.71392 z M 298.13063,120.08869 h -46.261 c -5.62935,0 -9.85136,2.43756 -12.66604,7.31269 l -23.13031,40.06293 c -2.81467,4.87517 -2.81467,9.75025 0,14.62524 l 9.10871,15.77683 77.23518,-77.23518 c -1.32444,-0.36168 -2.75328,-0.54251 -4.28654,-0.54251 z m -58.92705,102.06393 c 1.23314,2.13597 2.7364,3.80405 4.50978,5.00424 l 79.04181,-79.04181 -11.95904,-20.71366 c -1.233,-2.1358 -2.73612,-3.80375 -4.50938,-5.00385 l -79.04189,79.04189 z m 12.66605,7.31316 h 46.261 c 5.62927,0 9.8511,-2.43772 12.66551,-7.31315 l 23.13034,-40.06306 c 2.81485,-4.87499 2.81485,-9.75008 0,-14.62524 l -9.10846,-15.77632 -77.23519,77.23519 c 1.32452,0.36173 2.75346,0.54259 4.2868,0.54259 z"
             data-paper-data="{&quot;isPathIcon&quot;:true}"
             id="path974" />
        </g>
        <g
           data-paper-data="{&quot;isSecondaryText&quot;:true}"
           fill="#eaaa00"
           fill-rule="nonzero"
           id="g964"
           transform="matrix(0.62353786,0.01325155,-0.02862306,0.68462496,128.64841,-166.19969)"
           inkscape:transform-center-x="-2.4442173"
           inkscape:transform-center-y="-0.047015787">
          <path
             d="m 154.89043,344.98279 h 1.06652 v 6.18988 h 6.9999 v -6.18988 h 1.06652 v 9.6797 h -1.06652 v -2.3828 c 0,-0.027 -0.0135,-0.0405 -0.0405,-0.0405 h -6.95939 v 2.4233 h -1.06652 z"
             data-paper-data="{&quot;glyphName&quot;:&quot;H&quot;,&quot;glyphIndex&quot;:0,&quot;firstGlyphOfWord&quot;:true,&quot;word&quot;:1}"
             id="path936" />
          <path
             d="m 167.78094,344.98279 h 1.35003 c 0.33751,0.39151 1.31178,1.60203 2.92281,3.63158 0.198,0.24301 0.30601,0.36451 0.32401,0.36451 0,-0.0315 1.12277,-1.36353 3.36832,-3.99608 h 1.39053 l -4.25259,5.04235 v 4.63735 h -1.06652 v -4.63735 z"
             data-paper-data="{&quot;glyphName&quot;:&quot;Y&quot;,&quot;glyphIndex&quot;:1,&quot;word&quot;:1}"
             id="path938" />
          <path
             d="m 180.89422,344.98954 h 5.29886 c 1.79104,0 3.00156,0.83927 3.63158,2.5178 0.117,0.43651 0.1755,0.81902 0.1755,1.14752 v 0.28351 c 0,1.08002 -0.42301,2.02054 -1.26903,2.82156 -0.69301,0.56251 -1.45803,0.84377 -2.29505,0.84377 h -4.47534 v 2.05879 h -1.06652 z m 1.06652,1.06652 v 5.48111 h 4.41459 c 1.05302,0 1.83154,-0.51076 2.33555,-1.53228 0.1485,-0.41851 0.22275,-0.77402 0.22275,-1.06652 v -0.26326 c 0,-0.77402 -0.32176,-1.46478 -0.96527,-2.07229 -0.49501,-0.36451 -1.06652,-0.54676 -1.71454,-0.54676 z"
             data-paper-data="{&quot;glyphName&quot;:&quot;P&quot;,&quot;glyphIndex&quot;:2,&quot;word&quot;:1}"
             id="path940" />
          <path
             d="m 193.96024,344.98279 h 9.15319 v 1.06652 h -8.08667 v 7.54666 h 8.08667 v 1.06652 h -9.15319 z m 1.77529,3.89483 h 6.61514 v 1.06652 h -6.61514 z"
             data-paper-data="{&quot;glyphName&quot;:&quot;E&quot;,&quot;glyphIndex&quot;:3,&quot;word&quot;:1}"
             id="path942" />
          <path
             d="m 208.51804,344.98954 h 3.82058 c 1.41303,0 2.44355,0.42976 3.09156,1.28928 0.59401,0.71551 0.89102,1.55928 0.89102,2.5313 0,1.11152 -0.39601,2.06329 -1.18802,2.85531 0.29251,0.25201 0.43876,0.64126 0.43876,1.16777 v 1.82929 h -1.06652 v -1.91029 c 0,-0.216 -0.11925,-0.36451 -0.35776,-0.44551 h -0.0203 c -0.42751,0.2025 -1.01702,0.30376 -1.76854,0.30376 h -4.08383 v 2.05204 h -1.06652 v -9.6527 c 0.58501,-0.0135 1.02152,-0.0203 1.30953,-0.0203 z m -0.243,1.10703 v 5.40686 c 0.005,0.027 0.018,0.0405 0.0405,0.0405 h 4.06358 c 1.33653,0 2.21405,-0.52201 2.63255,-1.56603 0.162,-0.40051 0.24301,-0.79652 0.24301,-1.18802 0,-0.87302 -0.33526,-1.60428 -1.00577,-2.1938 -0.43201,-0.36001 -1.06202,-0.54001 -1.89004,-0.54001 h -4.04333 c -0.027,0.005 -0.0405,0.018 -0.0405,0.0405 z"
             data-paper-data="{&quot;glyphName&quot;:&quot;R&quot;,&quot;glyphIndex&quot;:4,&quot;word&quot;:1}"
             id="path944" />
          <path
             d="m 220.28129,344.98279 h 1.06652 v 8.57268 c 0.004,0.027 0.018,0.0405 0.0405,0.0405 h 8.04617 v 1.06652 h -9.15319 z"
             data-paper-data="{&quot;glyphName&quot;:&quot;L&quot;,&quot;glyphIndex&quot;:5,&quot;word&quot;:1}"
             id="path946" />
          <path
             d="m 230.01949,344.98279 h 1.35003 c 0.33751,0.39151 1.31178,1.60203 2.92281,3.63158 0.198,0.24301 0.30601,0.36451 0.32401,0.36451 0,-0.0315 1.12277,-1.36353 3.36832,-3.99608 h 1.39053 l -4.25259,5.04235 v 4.63735 h -1.06652 v -4.63735 z"
             data-paper-data="{&quot;glyphName&quot;:&quot;Y&quot;,&quot;glyphIndex&quot;:6,&quot;lastGlyphOfWord&quot;:true,&quot;word&quot;:1}"
             id="path948" />
          <path
             d="m 258.70983,344.82754 v 9.83495 h -1.03277 v -2.86881 h -4.35384 c -0.0585,0 -0.1755,0.1035 -0.35101,0.31051 -0.0405,0.0315 -0.89327,0.88427 -2.5583,2.5583 h -1.44453 v -0.0202 c 5.24261,-5.30111 8.48943,-8.57268 9.74045,-9.8147 z m -4.40784,5.92662 v 0.0202 h 3.37507 v -3.42907 c -1.46253,1.46253 -2.58755,2.5988 -3.37507,3.40882 z"
             data-paper-data="{&quot;glyphName&quot;:&quot;A&quot;,&quot;glyphIndex&quot;:7,&quot;firstGlyphOfWord&quot;:true,&quot;word&quot;:2}"
             id="path950" />
          <path
             d="m 269.1973,344.08502 h 0.0135 l 2.99706,8.04617 h 0.0203 l 2.6393,-7.10115 h 1.07327 l -3.71258,9.96321 h -0.0202 c -0.0225,-0.09 -1.02152,-2.76531 -2.99706,-8.02592 h -0.0135 l -2.97681,8.01242 h -0.0405 c -0.036,-0.1305 -1.27353,-3.44707 -3.71258,-9.94971 h 1.05302 c 0.027,0 0.19125,0.42526 0.49276,1.27578 1.24203,3.29407 1.96429,5.22911 2.1668,5.80512 h 0.0405 l 2.97681,-8.00567 z"
             data-paper-data="{&quot;glyphName&quot;:&quot;W&quot;,&quot;glyphIndex&quot;:8,&quot;word&quot;:2}"
             id="path952" />
          <path
             d="m 279.69827,344.98279 h 9.15319 v 1.06652 h -8.08667 v 7.54666 h 8.08667 v 1.06652 h -9.15319 z m 1.77529,3.89483 h 6.61514 v 1.06652 h -6.61514 z"
             data-paper-data="{&quot;glyphName&quot;:&quot;E&quot;,&quot;glyphIndex&quot;:9,&quot;word&quot;:2}"
             id="path954" />
          <path
             d="m 295.03234,344.98954 h 6.75689 v 1.06652 h -6.81764 c -0.60751,0 -0.99002,0.20025 -1.14752,0.60076 -0.054,0.1845 -0.081,0.32626 -0.081,0.42526 v 0.162 c 0.09,0.68401 0.41851,1.02602 0.98552,1.02602 h 4.50234 c 1.40853,0 2.3738,0.67051 2.89581,2.01154 0.135,0.36001 0.2025,0.76052 0.2025,1.20152 0,0.99002 -0.35551,1.81579 -1.06652,2.4773 -0.52651,0.46801 -1.21728,0.70201 -2.07229,0.70201 h -5.99412 v -1.06652 h 6.03463 c 0.62551,0 1.11602,-0.1935 1.47153,-0.58051 0.37351,-0.43651 0.56026,-0.95402 0.56026,-1.55253 0,-0.95402 -0.40276,-1.61778 -1.20828,-1.99129 -0.24751,-0.09 -0.52201,-0.135 -0.82352,-0.135 h -4.52259 c -0.88202,0 -1.51203,-0.44326 -1.89004,-1.32978 -0.0945,-0.25651 -0.14175,-0.49051 -0.14175,-0.70201 v -0.28351 c 0,-0.61201 0.26776,-1.14752 0.80327,-1.60653 0.32401,-0.28351 0.84152,-0.42526 1.55253,-0.42526 z"
             data-paper-data="{&quot;glyphName&quot;:&quot;S&quot;,&quot;glyphIndex&quot;:10,&quot;word&quot;:2}"
             id="path956" />
          <path
             d="m 311.18992,344.65204 c 1.31853,0 2.5043,0.47026 3.55732,1.41078 1.07552,1.08002 1.61328,2.32655 1.61328,3.73958 0,1.77304 -0.76727,3.21982 -2.3018,4.34034 -0.91352,0.56701 -1.83604,0.85052 -2.76756,0.85052 h -0.2025 c -1.48953,0 -2.80131,-0.63901 -3.93533,-1.91704 -0.51301,-0.75152 -0.76952,-1.21053 -0.76952,-1.37703 -0.24301,-0.54901 -0.36451,-1.18802 -0.36451,-1.91704 0,-1.29603 0.47701,-2.47505 1.43103,-3.53707 1.08002,-1.06202 2.32655,-1.59303 3.73958,-1.59303 z m -4.09733,5.2111 c 0,1.23753 0.53101,2.30855 1.59303,3.21307 0.78302,0.56251 1.59078,0.84377 2.4233,0.84377 h 0.162 c 1.00352,0 1.92604,-0.38251 2.76756,-1.14752 0.83252,-0.84152 1.24878,-1.82479 1.24878,-2.94981 0,-1.28253 -0.53776,-2.36705 -1.61328,-3.25357 -0.76952,-0.56251 -1.59753,-0.84377 -2.48405,-0.84377 -1.27353,0 -2.35805,0.53776 -3.25357,1.61328 -0.56251,0.75602 -0.84377,1.59753 -0.84377,2.52455 z"
             data-paper-data="{&quot;glyphName&quot;:&quot;O&quot;,&quot;glyphIndex&quot;:11,&quot;word&quot;:2}"
             id="path958" />
          <path
             d="m 320.32061,344.13227 h 0.0203 l 4.74535,8.65368 h 0.0203 c 0.0315,-0.018 0.42301,-0.72902 1.17452,-2.13304 0.55351,-0.96752 1.75054,-3.14107 3.59107,-6.52064 h 0.0202 v 10.53022 h -1.05977 v -6.39913 h -0.0135 L 325.1267,355 h -0.0405 l -3.69233,-6.73664 h -0.0135 v 6.39913 h -1.05977 z"
             data-paper-data="{&quot;glyphName&quot;:&quot;M&quot;,&quot;glyphIndex&quot;:12,&quot;word&quot;:2}"
             id="path960" />
          <path
             d="m 334.1224,344.98279 h 9.15319 v 1.06652 h -8.08667 v 7.54666 h 8.08667 v 1.06652 h -9.15319 z m 1.77529,3.89483 h 6.61514 v 1.06652 h -6.61514 z"
             data-paper-data="{&quot;glyphName&quot;:&quot;E&quot;,&quot;glyphIndex&quot;:13,&quot;lastGlyphOfWord&quot;:true,&quot;word&quot;:2}"
             id="path962" />
        </g>
        <text
           xml:space="preserve"
           style="font-size:14.6805px;line-height:1.25;font-family:System-ui;-inkscape-font-specification:System-ui;stroke-width:0.367013"
           x="183.99644"
           y="268.13385"
           id="text13664"
           transform="scale(1.0073813,0.99267282)"><tspan
             sodipodi:role="line"
             id="tspan13662"
             style="stroke-width:0.367013"
             x="183.99644"
             y="268.13385">HYP</tspan></text>
      </g>
      <path
         style="fill:#0000ff;fill-opacity:1;fill-rule:evenodd;stroke:#ffffff;stroke-width:2.10541"
         d="m 93.017783,288.99116 c -7.225958,-12.30057 -13.138105,-23.71235 -13.138105,-25.35952 0,-3.06439 181.493242,-187.285962 191.607732,-194.488117 l 5.58907,-3.97977 9.81111,16.7351 c 16.76235,28.592007 16.7375,26.731957 0.59555,44.592787 -7.65482,8.46994 -51.58497,53.52935 -97.62255,100.13203 l -83.7047,84.73214 z"
         id="path9383"
         transform="scale(0.26458333)"
         inkscape:export-filename="/home/prakash/path1145.png"
         inkscape:export-xdpi="120"
         inkscape:export-ydpi="120" />
      <text
         xml:space="preserve"
         style="font-style:normal;font-variant:normal;font-weight:bold;font-stretch:normal;font-size:15.2967px;line-height:1.25;font-family:FreeMono;-inkscape-font-specification:'FreeMono Bold';fill:#ffffff;stroke-width:0.382419"
         x="-7.9961452"
         y="74.946304"
         id="text16680"
         transform="matrix(0.71898813,-0.69342788,0.66649232,0.74804524,0,0)"
         inkscape:transform-center-y="3.3054449"
         inkscape:transform-center-x="1.9383686e-05"
         inkscape:export-filename="/home/prakash/path1145.png"
         inkscape:export-xdpi="120"
         inkscape:export-ydpi="120"><tspan
           sodipodi:role="line"
           id="tspan16678"
           style="font-style:normal;font-variant:normal;font-weight:bold;font-stretch:normal;font-family:FreeMono;-inkscape-font-specification:'FreeMono Bold';fill:#ffffff;stroke-width:0.382419"
           x="-7.9961452"
           y="74.946304">HYP</tspan></text>
      <path
         style="fill:#0000ff;fill-rule:evenodd;stroke:#ffffff;stroke-width:0.159151"
         d="M 31.276239,93.711511 C 28.440437,88.941075 27.48284,87.247028 26.522008,85.300996 l -0.680952,-1.379173 1.420233,-1.549216 C 30.07068,79.30807 49.591402,59.609535 60.24007,49.093426 79.801772,29.775231 85.175326,24.593132 86.764813,23.513732 l 0.891857,-0.605649 2.7201,4.555174 c 3.307882,5.539491 4.025508,6.980033 4.034168,8.098078 0.0089,1.150672 -0.497372,1.977686 -2.749733,4.491661 -1.824083,2.035953 -57.593159,57.829651 -57.804131,57.829651 -0.05571,0 -1.217086,-1.877011 -2.580835,-4.171136 z M 54.917788,72.580014 c 1.38054,-1.311378 1.615882,-1.735828 1.261959,-2.275984 -0.356428,-0.543978 -0.842196,-0.636249 -1.354715,-0.257327 l -0.436018,0.322362 -0.816299,-0.826567 -0.8163,-0.826567 1.315616,-1.308779 1.315615,-1.308782 0.559297,0.597976 c 0.972253,1.039486 0.998754,1.095113 0.714841,1.500456 -0.508493,0.725975 -0.139957,1.719374 0.637862,1.719374 0.469141,0 2.659822,-1.905576 2.924065,-2.543514 0.16512,-0.398633 0.154867,-0.536831 -0.06468,-0.871907 -0.287069,-0.438123 -1.143369,-0.557138 -1.492999,-0.207508 -0.119813,0.119812 -0.244352,0.134576 -0.335091,0.03973 -0.07943,-0.08302 -1.079051,-1.184238 -2.221389,-2.447139 -2.022164,-2.235581 -2.074507,-2.311655 -1.983236,-2.882423 0.122706,-0.76737 -0.375536,-1.340139 -1.027624,-1.181334 -0.625582,0.152349 -2.568361,2.125874 -2.568361,2.609008 0,0.852138 0.990571,1.271489 1.634849,0.6921 0.298947,-0.268839 0.33499,-0.249361 1.085089,0.586414 0.426729,0.475468 0.766639,0.904499 0.755357,0.953402 -0.01128,0.0489 -0.601201,0.634852 -1.310928,1.302111 l -1.290415,1.213199 -0.760451,-0.84566 -0.760453,-0.84566 0.312213,-0.582521 c 0.456816,-0.85232 0.160278,-1.503209 -0.684845,-1.503209 -0.406517,0 -0.727607,0.213241 -1.660474,1.102746 -0.959184,0.914598 -1.147768,1.176253 -1.105304,1.533564 0.07039,0.592222 0.741071,1.076255 1.237053,0.89278 0.343088,-0.126917 0.578232,0.08128 2.639369,2.336926 1.923491,2.105008 2.232037,2.511988 2.05803,2.714605 -0.395133,0.4601 -0.419203,0.887639 -0.07464,1.325686 0.541453,0.688345 0.961541,0.556207 2.313006,-0.727553 z m 9.842977,-9.283357 c 1.008834,-0.931482 1.902207,-1.820596 1.985273,-1.975807 0.272807,-0.509745 0.172409,-1.076264 -0.238441,-1.345464 -0.490077,-0.321111 -0.896473,-0.199347 -1.671449,0.500797 l -0.595686,0.538167 -0.832401,-0.957032 -0.8324,-0.95703 -0.366027,-2.497351 c -0.318618,-2.173876 -0.337185,-2.542936 -0.143352,-2.849286 0.456424,-0.721373 0.08761,-1.63432 -0.660242,-1.63432 -0.6838,0 -2.771792,2.028952 -2.771792,2.693416 0,0.309441 0.632674,0.802393 1.029825,0.802393 0.433414,0 0.457721,0.06041 0.687375,1.708179 0.07613,0.546221 0.0963,0.990196 0.04483,0.986615 -0.05147,-0.0036 -0.62987,-0.130936 -1.285334,-0.283007 -1.160858,-0.269325 -1.19305,-0.289833 -1.241777,-0.791073 -0.07015,-0.721625 -0.651579,-1.095059 -1.291979,-0.829795 -0.661413,0.273966 -2.233256,1.964932 -2.233256,2.402506 0,0.743565 1.049265,1.255264 1.549083,0.755446 0.137452,-0.137453 0.783084,-0.05155 2.613912,0.347775 l 2.431372,0.530314 0.926832,0.931112 0.926831,0.931112 -0.648755,0.703818 c -0.696397,0.7555 -0.804381,1.228985 -0.385779,1.691534 0.565204,0.624544 1.055426,0.395535 3.003332,-1.403019 z m 6.186009,-5.863228 c 2.433034,-2.223262 2.653497,-2.583405 1.98851,-3.248392 -0.51236,-0.512361 -1.002663,-0.394599 -1.945747,0.467327 l -0.859055,0.785127 -0.548497,-0.548497 -0.548497,-0.548497 1.059643,-1.082997 c 1.37376,-1.404038 1.783021,-2.195889 1.78665,-3.456875 0.0034,-1.198668 -0.547165,-2.242528 -1.523808,-2.88884 -0.558162,-0.369375 -0.821012,-0.433418 -1.778846,-0.433418 -0.794085,0 -1.306867,0.09076 -1.747362,0.309268 -0.342901,0.170098 -1.540613,1.197863 -2.661582,2.283923 -2.144234,2.077461 -2.352076,2.437489 -1.775148,3.074987 0.336178,0.371471 0.873995,0.37077 1.334025,-0.0017 l 0.361005,-0.292326 2.260556,2.477206 2.260555,2.477206 -0.299902,0.421781 c -0.164947,0.231979 -0.299903,0.571628 -0.299903,0.754777 0,0.423099 0.53815,0.968598 0.955549,0.968598 0.182418,0 1.034328,-0.652787 1.981854,-1.518619 z"
         id="path2189"
         transform="matrix(0.83667641,0,0,0.85297326,-0.13695354,-1.7635012)" />
      <path
         style="fill:#0000ff;fill-rule:evenodd;stroke:#ffffff;stroke-width:0.159151"
         d="m 32.644891,103.57085 c -0.579492,-0.54208 -1.360164,-1.41802 -1.734828,-1.94653 -0.374664,-0.5285 -2.877207,-4.750691 -5.561207,-9.382638 -2.684,-4.631946 -5.016885,-8.64543 -5.184189,-8.918853 L 19.860478,82.825694 53.552619,49.278418 C 72.083296,30.827415 87.344555,15.73114 87.466524,15.73114 c 0.34162,0 2.342501,2.031492 3.051869,3.098557 0.852909,1.282989 10.701157,18.289533 10.701157,18.479399 0,0.158395 -67.269659,67.247364 -67.428481,67.247364 -0.05091,0 -0.566686,-0.44352 -1.146178,-0.98561 z M 61.436013,70.750403 C 88.116866,44.123714 92.694982,39.458699 93.876543,37.6941 c 0.927988,-1.385897 0.933818,-2.527757 0.02288,-4.480395 -0.648719,-1.390558 -6.068489,-10.482024 -6.251708,-10.487009 -0.293805,-0.008 -2.454393,1.754798 -4.383906,3.576767 C 77.731203,31.527702 62.14253,46.919214 46.791607,62.314376 29.448541,79.707425 25.741865,83.52188 25.741865,83.976183 c 0,0.318927 1.673123,3.550178 3.169079,6.120344 2.283447,3.923138 4.821295,8.10392 4.919298,8.10392 0.05494,0 12.477536,-12.352519 27.605771,-27.450044 z"
         id="path2228"
         transform="matrix(0.83667641,0,0,0.85297326,-0.13695354,-1.7635012)" />
      <path
         style="fill:#0000ff;fill-rule:evenodd;stroke:#ffffff;stroke-width:0.159151"
         d="M 13.946956,72.582115 C 11.703654,68.71248 9.6954503,65.153137 9.4842802,64.672463 8.2539191,61.871867 8.1835458,58.976951 9.2756915,56.091841 9.620582,55.180748 12.906716,49.363045 19.373133,38.215546 24.645519,29.126443 29.429813,20.903348 30.004896,19.942 c 1.780402,-2.976237 3.910016,-4.786642 6.780547,-5.764205 l 1.271203,-0.43291 h 22.563857 c 15.049889,0 22.683132,0.05416 22.922031,0.162647 0.335248,0.152237 0.111505,0.406275 -3.495809,3.969141 C 76.088492,21.786131 50.66511,47.087888 29.789069,67.893894 L 18.025685,79.617816 Z"
         id="path2267"
         transform="matrix(0.83667641,0,0,0.85297326,-0.13695354,-1.7635012)" />
      <path
         style="fill:#0000ff;fill-rule:evenodd;stroke:#ffffff;stroke-width:0.159151"
         d="m 38.965138,106.45465 c -0.549071,-0.0727 -1.12886,-0.17359 -1.28842,-0.22423 -0.2267,-0.072 3.777092,-4.14519 18.318456,-18.63618 10.23471,-10.199256 25.04403,-24.958823 32.9096,-32.79904 l 14.301036,-14.25494 3.93679,6.808688 c 4.25419,7.357616 4.90577,8.62286 5.29467,10.2812 0.3914,1.668985 0.24297,4.351715 -0.33564,6.066461 -0.35018,1.037803 -2.73784,5.276338 -10.92046,19.385849 -5.759757,9.931706 -10.766551,18.439242 -11.12621,18.905642 -1.542384,2.00013 -3.769623,3.49229 -6.268889,4.1999 l -1.237313,0.35032 -21.292654,0.0242 c -11.710959,0.0133 -21.741894,-0.0352 -22.290966,-0.10792 z"
         id="path2306"
         transform="matrix(0.83667641,0,0,0.85297326,-0.13695354,-1.7635012)" />
    </g>
  </g>
</svg>
