<?xml version="1.0" encoding="UTF-8" standalone="no"?>
<!-- Created with Inkscape (http://www.inkscape.org/) -->

<svg
   width="24px"
   height="24px"
   viewBox="5 8 80 65"
   version="1.1"
   id="svg5"
   inkscape:version="1.1.1 (3bf5ae0, 2021-09-20)"
   sodipodi:docname="hypertext.svg"
   xmlns:inkscape="http://www.inkscape.org/namespaces/inkscape"
   xmlns:sodipodi="http://sodipodi.sourceforge.net/DTD/sodipodi-0.dtd"
   xmlns="http://www.w3.org/2000/svg"
   xmlns:svg="http://www.w3.org/2000/svg">
  <sodipodi:namedview
     id="namedview7"
     pagecolor="#ffffff"
     bordercolor="#666666"
     borderopacity="1.0"
     inkscape:pageshadow="2"
     inkscape:pageopacity="0.0"
     inkscape:pagecheckerboard="true"
     inkscape:document-units="mm"
     showgrid="false"
     inkscape:zoom="0.6727633"
     inkscape:cx="-286.13333"
     inkscape:cy="306.94302"
     inkscape:window-width="1366"
     inkscape:window-height="710"
     inkscape:window-x="0"
     inkscape:window-y="27"
     inkscape:window-maximized="1"
     inkscape:current-layer="layer1" />
  <defs
     id="defs2">
    <filter
       inkscape:menu="Textures"
       inkscape:label="Watercolor"
       inkscape:menu-tooltip="Cloudy watercolor effect"
       height="2.0303037"
       y="-0.5151518"
       width="1.8836488"
       x="-0.44182435"
       style="color-interpolation-filters:sRGB"
       id="filter706">
      <feGaussianBlur
         stdDeviation="15"
         result="result8"
         id="feGaussianBlur688" />
      <feTurbulence
         seed="27"
         result="result7"
         type="fractalNoise"
         numOctaves="5"
         baseFrequency="0.025"
         id="feTurbulence690" />
      <feComposite
         in2="result8"
         result="result6"
         operator="over"
         in="result7"
         id="feComposite692" />
      <feColorMatrix
         result="result9"
         values="1 0 0 0 0 0 1 0 0 0 0 0 1 0 0 0 0 0 6 -4 "
         id="feColorMatrix694" />
      <feDisplacementMap
         in="result7"
         in2="result9"
         xChannelSelector="A"
         yChannelSelector="A"
         scale="45"
         result="result4"
         id="feDisplacementMap696" />
      <feComposite
         in2="result4"
         result="result2"
         operator="in"
         in="result8"
         id="feComposite698" />
      <feComposite
         result="fbSourceGraphic"
         in="result2"
         operator="in"
         in2="result9"
         id="feComposite700" />
      <feComposite
         operator="arithmetic"
         k2="1"
         k1="0.5"
         in="fbSourceGraphic"
         in2="fbSourceGraphic"
         result="result91"
         id="feComposite702"
         k3="0"
         k4="0" />
      <feBlend
         in="fbSourceGraphic"
         mode="multiply"
         in2="result91"
         id="feBlend704" />
    </filter>
  </defs>
  <g
     inkscape:label="Layer 1"
     inkscape:groupmode="layer"
     id="layer1">
    <rect
       style="fill:#0000ff;fill-rule:evenodd;stroke-width:0.264583"
       id="rect522"
       width="81.480347"
       height="69.882317"
       x="4.1600194"
       y="4.2435393"
       ry="6.1140976" />
    <g
       data-paper-data="{&quot;isGlobalGroup&quot;:true,&quot;bounds&quot;:{&quot;x&quot;:154.8904271117667,&quot;y&quot;:115,&quot;width&quot;:240.21914577646658,&quot;height&quot;:240}}"
       id="g1067"
       style="font-family:none;mix-blend-mode:normal;fill:none;stroke:none;stroke-width:1;stroke-linecap:butt;stroke-linejoin:miter;stroke-miterlimit:10;stroke-dasharray:none;stroke-dashoffset:0"
       transform="matrix(0.26458333,0,0,0.26458333,-27.223763,-23.199917)">
      <g
         data-paper-data="{&quot;isSecondaryText&quot;:true}"
         fill="#eaaa00"
         fill-rule="nonzero"
         id="g1053">
        <path
           d="m 154.89043,344.98279 h 1.06652 v 6.18988 h 6.9999 v -6.18988 h 1.06652 v 9.6797 h -1.06652 v -2.3828 c 0,-0.027 -0.0135,-0.0405 -0.0405,-0.0405 h -6.95939 v 2.4233 h -1.06652 z"
           data-paper-data="{&quot;glyphName&quot;:&quot;H&quot;,&quot;glyphIndex&quot;:0,&quot;firstGlyphOfWord&quot;:true,&quot;word&quot;:1}"
           id="path1025" />
        <path
           d="m 167.78094,344.98279 h 1.35003 c 0.33751,0.39151 1.31178,1.60203 2.92281,3.63158 0.198,0.24301 0.30601,0.36451 0.32401,0.36451 0,-0.0315 1.12277,-1.36353 3.36832,-3.99608 h 1.39053 l -4.25259,5.04235 v 4.63735 h -1.06652 v -4.63735 z"
           data-paper-data="{&quot;glyphName&quot;:&quot;Y&quot;,&quot;glyphIndex&quot;:1,&quot;word&quot;:1}"
           id="path1027" />
        <path
           d="m 180.89422,344.98954 h 5.29886 c 1.79104,0 3.00156,0.83927 3.63158,2.5178 0.117,0.43651 0.1755,0.81902 0.1755,1.14752 v 0.28351 c 0,1.08002 -0.42301,2.02054 -1.26903,2.82156 -0.69301,0.56251 -1.45803,0.84377 -2.29505,0.84377 h -4.47534 v 2.05879 h -1.06652 z m 1.06652,1.06652 v 5.48111 h 4.41459 c 1.05302,0 1.83154,-0.51076 2.33555,-1.53228 0.1485,-0.41851 0.22275,-0.77402 0.22275,-1.06652 v -0.26326 c 0,-0.77402 -0.32176,-1.46478 -0.96527,-2.07229 -0.49501,-0.36451 -1.06652,-0.54676 -1.71454,-0.54676 z"
           data-paper-data="{&quot;glyphName&quot;:&quot;P&quot;,&quot;glyphIndex&quot;:2,&quot;word&quot;:1}"
           id="path1029" />
        <path
           d="m 193.96024,344.98279 h 9.15319 v 1.06652 h -8.08667 v 7.54666 h 8.08667 v 1.06652 h -9.15319 z m 1.77529,3.89483 h 6.61514 v 1.06652 h -6.61514 z"
           data-paper-data="{&quot;glyphName&quot;:&quot;E&quot;,&quot;glyphIndex&quot;:3,&quot;word&quot;:1}"
           id="path1031" />
        <path
           d="m 208.51804,344.98954 h 3.82058 c 1.41303,0 2.44355,0.42976 3.09156,1.28928 0.59401,0.71551 0.89102,1.55928 0.89102,2.5313 0,1.11152 -0.39601,2.06329 -1.18802,2.85531 0.29251,0.25201 0.43876,0.64126 0.43876,1.16777 v 1.82929 h -1.06652 v -1.91029 c 0,-0.216 -0.11925,-0.36451 -0.35776,-0.44551 h -0.0203 c -0.42751,0.2025 -1.01702,0.30376 -1.76854,0.30376 h -4.08383 v 2.05204 h -1.06652 v -9.6527 c 0.58501,-0.0135 1.02152,-0.0203 1.30953,-0.0203 z m -0.243,1.10703 v 5.40686 c 0.005,0.027 0.018,0.0405 0.0405,0.0405 h 4.06358 c 1.33653,0 2.21405,-0.52201 2.63255,-1.56603 0.162,-0.40051 0.24301,-0.79652 0.24301,-1.18802 0,-0.87302 -0.33526,-1.60428 -1.00577,-2.1938 -0.43201,-0.36001 -1.06202,-0.54001 -1.89004,-0.54001 h -4.04333 c -0.027,0.005 -0.0405,0.018 -0.0405,0.0405 z"
           data-paper-data="{&quot;glyphName&quot;:&quot;R&quot;,&quot;glyphIndex&quot;:4,&quot;word&quot;:1}"
           id="path1033" />
        <path
           d="m 220.28129,344.98279 h 1.06652 v 8.57268 c 0.004,0.027 0.018,0.0405 0.0405,0.0405 h 8.04617 v 1.06652 h -9.15319 z"
           data-paper-data="{&quot;glyphName&quot;:&quot;L&quot;,&quot;glyphIndex&quot;:5,&quot;word&quot;:1}"
           id="path1035" />
        <path
           d="m 230.01949,344.98279 h 1.35003 c 0.33751,0.39151 1.31178,1.60203 2.92281,3.63158 0.198,0.24301 0.30601,0.36451 0.32401,0.36451 0,-0.0315 1.12277,-1.36353 3.36832,-3.99608 h 1.39053 l -4.25259,5.04235 v 4.63735 h -1.06652 v -4.63735 z"
           data-paper-data="{&quot;glyphName&quot;:&quot;Y&quot;,&quot;glyphIndex&quot;:6,&quot;lastGlyphOfWord&quot;:true,&quot;word&quot;:1}"
           id="path1037" />
        <path
           d="m 258.70983,344.82754 v 9.83495 h -1.03277 v -2.86881 h -4.35384 c -0.0585,0 -0.1755,0.1035 -0.35101,0.31051 -0.0405,0.0315 -0.89327,0.88427 -2.5583,2.5583 h -1.44453 v -0.0202 c 5.24261,-5.30111 8.48943,-8.57268 9.74045,-9.8147 z m -4.40784,5.92662 v 0.0202 h 3.37507 v -3.42907 c -1.46253,1.46253 -2.58755,2.5988 -3.37507,3.40882 z"
           data-paper-data="{&quot;glyphName&quot;:&quot;A&quot;,&quot;glyphIndex&quot;:7,&quot;firstGlyphOfWord&quot;:true,&quot;word&quot;:2}"
           id="path1039" />
        <path
           d="m 269.1973,344.08502 h 0.0135 l 2.99706,8.04617 h 0.0203 l 2.6393,-7.10115 h 1.07327 l -3.71258,9.96321 h -0.0202 c -0.0225,-0.09 -1.02152,-2.76531 -2.99706,-8.02592 h -0.0135 l -2.97681,8.01242 h -0.0405 c -0.036,-0.1305 -1.27353,-3.44707 -3.71258,-9.94971 h 1.05302 c 0.027,0 0.19125,0.42526 0.49276,1.27578 1.24203,3.29407 1.96429,5.22911 2.1668,5.80512 h 0.0405 l 2.97681,-8.00567 z"
           data-paper-data="{&quot;glyphName&quot;:&quot;W&quot;,&quot;glyphIndex&quot;:8,&quot;word&quot;:2}"
           id="path1041" />
        <path
           d="m 279.69827,344.98279 h 9.15319 v 1.06652 h -8.08667 v 7.54666 h 8.08667 v 1.06652 h -9.15319 z m 1.77529,3.89483 h 6.61514 v 1.06652 h -6.61514 z"
           data-paper-data="{&quot;glyphName&quot;:&quot;E&quot;,&quot;glyphIndex&quot;:9,&quot;word&quot;:2}"
           id="path1043" />
        <path
           d="m 295.03234,344.98954 h 6.75689 v 1.06652 h -6.81764 c -0.60751,0 -0.99002,0.20025 -1.14752,0.60076 -0.054,0.1845 -0.081,0.32626 -0.081,0.42526 v 0.162 c 0.09,0.68401 0.41851,1.02602 0.98552,1.02602 h 4.50234 c 1.40853,0 2.3738,0.67051 2.89581,2.01154 0.135,0.36001 0.2025,0.76052 0.2025,1.20152 0,0.99002 -0.35551,1.81579 -1.06652,2.4773 -0.52651,0.46801 -1.21728,0.70201 -2.07229,0.70201 h -5.99412 v -1.06652 h 6.03463 c 0.62551,0 1.11602,-0.1935 1.47153,-0.58051 0.37351,-0.43651 0.56026,-0.95402 0.56026,-1.55253 0,-0.95402 -0.40276,-1.61778 -1.20828,-1.99129 -0.24751,-0.09 -0.52201,-0.135 -0.82352,-0.135 h -4.52259 c -0.88202,0 -1.51203,-0.44326 -1.89004,-1.32978 -0.0945,-0.25651 -0.14175,-0.49051 -0.14175,-0.70201 v -0.28351 c 0,-0.61201 0.26776,-1.14752 0.80327,-1.60653 0.32401,-0.28351 0.84152,-0.42526 1.55253,-0.42526 z"
           data-paper-data="{&quot;glyphName&quot;:&quot;S&quot;,&quot;glyphIndex&quot;:10,&quot;word&quot;:2}"
           id="path1045" />
        <path
           d="m 311.18992,344.65204 c 1.31853,0 2.5043,0.47026 3.55732,1.41078 1.07552,1.08002 1.61328,2.32655 1.61328,3.73958 0,1.77304 -0.76727,3.21982 -2.3018,4.34034 -0.91352,0.56701 -1.83604,0.85052 -2.76756,0.85052 h -0.2025 c -1.48953,0 -2.80131,-0.63901 -3.93533,-1.91704 -0.51301,-0.75152 -0.76952,-1.21053 -0.76952,-1.37703 -0.24301,-0.54901 -0.36451,-1.18802 -0.36451,-1.91704 0,-1.29603 0.47701,-2.47505 1.43103,-3.53707 1.08002,-1.06202 2.32655,-1.59303 3.73958,-1.59303 z m -4.09733,5.2111 c 0,1.23753 0.53101,2.30855 1.59303,3.21307 0.78302,0.56251 1.59078,0.84377 2.4233,0.84377 h 0.162 c 1.00352,0 1.92604,-0.38251 2.76756,-1.14752 0.83252,-0.84152 1.24878,-1.82479 1.24878,-2.94981 0,-1.28253 -0.53776,-2.36705 -1.61328,-3.25357 -0.76952,-0.56251 -1.59753,-0.84377 -2.48405,-0.84377 -1.27353,0 -2.35805,0.53776 -3.25357,1.61328 -0.56251,0.75602 -0.84377,1.59753 -0.84377,2.52455 z"
           data-paper-data="{&quot;glyphName&quot;:&quot;O&quot;,&quot;glyphIndex&quot;:11,&quot;word&quot;:2}"
           id="path1047" />
        <path
           d="m 320.32061,344.13227 h 0.0203 l 4.74535,8.65368 h 0.0203 c 0.0315,-0.018 0.42301,-0.72902 1.17452,-2.13304 0.55351,-0.96752 1.75054,-3.14107 3.59107,-6.52064 h 0.0202 v 10.53022 h -1.05977 v -6.39913 h -0.0135 L 325.1267,355 h -0.0405 l -3.69233,-6.73664 h -0.0135 v 6.39913 h -1.05977 z"
           data-paper-data="{&quot;glyphName&quot;:&quot;M&quot;,&quot;glyphIndex&quot;:12,&quot;word&quot;:2}"
           id="path1049" />
        <path
           d="m 334.1224,344.98279 h 9.15319 v 1.06652 h -8.08667 v 7.54666 h 8.08667 v 1.06652 h -9.15319 z m 1.77529,3.89483 h 6.61514 v 1.06652 h -6.61514 z"
           data-paper-data="{&quot;glyphName&quot;:&quot;E&quot;,&quot;glyphIndex&quot;:13,&quot;lastGlyphOfWord&quot;:true,&quot;word&quot;:2}"
           id="path1051" />
      </g>
      <g
         data-paper-data="{&quot;isPrimaryText&quot;:true}"
         fill="#f6be00"
         fill-rule="nonzero"
         id="g1061">
        <path
           d="m 206.13013,286.32461 -39.88245,-0.066 v -15.25306 h -11.35725 v 41.73131 h 11.35725 v -15.121 l 39.88245,0.066 v 15.05497 h 11.35725 v -41.73131 h -11.35725 z"
           data-paper-data="{&quot;glyphName&quot;:&quot;H&quot;,&quot;glyphIndex&quot;:0,&quot;firstGlyphOfWord&quot;:true,&quot;word&quot;:1}"
           fill="#ffffff"
           id="path1055" />
        <path
           d="m 294.71012,271.00552 v 12.94199 c 0,0.72634 -0.33015,1.45267 -0.79237,1.91489 -0.33015,0.33015 -0.72634,0.46221 -1.25458,0.46221 h -0.066 -13.99848 v -0.066 H 257.0727 c -1.32061,0 -2.3771,-1.12252 -2.3771,-2.3771 v -12.87596 h -11.29122 v 12.87596 c 0,6.86718 5.08435,12.61184 11.75344,13.53626 v 0.19809 h 13.07405 v 15.121 h 11.29122 v -15.05497 h 13.07405 c 0,0 0,0 0.066,0 3.49962,0 6.80115,-1.32061 9.31031,-3.82977 2.57519,-2.57519 4.02786,-6.20687 4.02786,-9.90458 v -12.94199 z"
           data-paper-data="{&quot;glyphName&quot;:&quot;Y&quot;,&quot;glyphIndex&quot;:1,&quot;word&quot;:1}"
           fill="#ffffff"
           id="path1057" />
        <path
           d="m 379.59239,270.87346 h -47.67406 v 41.86337 h 11.35725 v -10.69695 l 36.38283,0.066 v 0 c 3.8958,0 7.85764,-1.71679 10.76298,-4.62214 3.03741,-3.03741 4.68817,-6.99924 4.68817,-11.22519 0,-8.78206 -6.66909,-15.38512 -15.51718,-15.38512 z m 2.83932,18.55459 c -0.79237,0.8584 -1.84886,1.32061 -2.77328,1.32061 v 0 l -36.38283,-0.066 v -8.45191 h 36.3168 c 0.99046,0 4.22596,0.26412 4.22596,4.02786 0,1.58473 -0.8584,2.70725 -1.38664,3.16947 z"
           data-paper-data="{&quot;glyphName&quot;:&quot;P&quot;,&quot;glyphIndex&quot;:2,&quot;lastGlyphOfWord&quot;:true,&quot;word&quot;:1}"
           fill="#ffffff"
           id="path1059" />
      </g>
      <g
         data-paper-data="{&quot;isIcon&quot;:&quot;true&quot;,&quot;iconType&quot;:&quot;icon&quot;,&quot;rawIconId&quot;:&quot;1387985&quot;,&quot;selectedEffects&quot;:{&quot;container&quot;:&quot;hexagon_mask_outline3_rounded_rotated&quot;,&quot;transformation&quot;:&quot;&quot;,&quot;pattern&quot;:&quot;&quot;},&quot;fillRule&quot;:&quot;evenodd&quot;,&quot;relativeBoundsIconToContainer&quot;:{&quot;top&quot;:0,&quot;left&quot;:1.4190995835629624e-16},&quot;widthRatioIconToContainer&quot;:0.9935899407388931,&quot;heightRatioIconToContainer&quot;:1.1,&quot;bounds&quot;:{&quot;x&quot;:208.8208422001001,&quot;y&quot;:115,&quot;width&quot;:132.35831559979974,&quot;height&quot;:119.55445226766582},&quot;iconStyle&quot;:&quot;standalone&quot;,&quot;suitableAsStandaloneIcon&quot;:true}"
         fill="#f6be00"
         fill-rule="evenodd"
         id="g1065">
        <path
           d="m 315.20346,224.69696 c -3.79426,6.57166 -9.4852,9.85749 -17.07283,9.85749 h -46.261 c -7.58798,0 -13.27897,-3.28583 -17.07296,-9.85749 L 211.66636,184.6339 c -3.79401,-6.57122 -3.79401,-13.14253 0,-19.71392 l 23.13031,-40.06293 C 238.59066,118.28568 244.28165,115 251.86963,115 h 46.261 c 7.58763,0 13.27858,3.28568 17.07283,9.85705 l 23.13034,40.06293 c 3.79381,6.57139 3.79381,13.1427 0,19.71392 z M 298.13063,120.08869 h -46.261 c -5.62935,0 -9.85136,2.43756 -12.66604,7.31269 l -23.13031,40.06293 c -2.81467,4.87517 -2.81467,9.75025 0,14.62524 l 9.10871,15.77683 77.23518,-77.23518 c -1.32444,-0.36168 -2.75328,-0.54251 -4.28654,-0.54251 z m -58.92705,102.06393 c 1.23314,2.13597 2.7364,3.80405 4.50978,5.00424 l 79.04181,-79.04181 -11.95904,-20.71366 c -1.233,-2.1358 -2.73612,-3.80375 -4.50938,-5.00385 l -79.04189,79.04189 z m 12.66605,7.31316 h 46.261 c 5.62927,0 9.8511,-2.43772 12.66551,-7.31315 l 23.13034,-40.06306 c 2.81485,-4.87499 2.81485,-9.75008 0,-14.62524 l -9.10846,-15.77632 -77.23519,77.23519 c 1.32452,0.36173 2.75346,0.54259 4.2868,0.54259 z"
           data-paper-data="{&quot;isPathIcon&quot;:true}"
           id="path1063" />
      </g>
    </g>
    <rect
       style="fill:#0000ff;fill-rule:evenodd;stroke-width:0.264583"
       id="rect1143"
       width="61.06271"
       height="7.7951789"
       x="9.2572165"
       y="63.314819"
       ry="3.8975894" />
  </g>
</svg>
