<?xml version="1.0" standalone="no"?>
<!DOCTYPE svg PUBLIC "-//W3C//DTD SVG 20010904//EN"
 "http://www.w3.org/TR/2001/REC-SVG-20010904/DTD/svg10.dtd">
<svg version="1.0" xmlns="http://www.w3.org/2000/svg"
 width="24px" height="24px" viewBox="0 0 512.000000 512.000000"
 preserveAspectRatio="xMidYMid meet">
<metadata>
Created by potrace 1.16, written by Peter Selinger 2001-2019
</metadata>
<g transform="translate(0.000000,512.000000) scale(0.100000,-0.100000)"
fill="#B5B5BD" stroke="none">
<path d="M263 4491 c-104 -38 -180 -107 -231 -211 l-27 -55 -3 -1095 c-1 -602
-1 -1246 0 -1430 l3 -334 148 236 147 236 0 648 c0 358 5 682 10 723 27 206
185 364 391 391 99 13 2599 13 2698 0 103 -14 188 -55 262 -129 98 -99 138
-212 139 -398 l0 -63 151 0 150 0 -3 308 -3 307 -29 60 c-38 77 -114 153 -191
191 l-60 29 -957 3 -956 2 -4 158 c-3 150 -4 160 -32 217 -38 77 -114 153
-191 191 l-60 29 -650 2 c-614 2 -653 2 -702 -16z"/>
<path d="M666 3291 c-16 -11 -37 -33 -48 -49 -17 -28 -18 -55 -16 -473 l3
-444 155 250 c102 165 173 268 207 302 67 66 159 110 255 123 42 5 539 10
1176 10 l1102 0 0 103 c0 112 -11 141 -66 178 -28 18 -73 19 -1384 19 -1317 0
-1356 -1 -1384 -19z"/>
<path d="M1189 2687 c-26 -17 -170 -240 -611 -947 l-578 -925 0 -55 c0 -62 20
-100 66 -131 28 -18 86 -19 1982 -19 1839 0 1956 1 1983 17 21 12 185 251 531
773 276 415 513 777 527 805 23 44 26 61 26 155 0 91 -3 111 -25 155 -31 64
-101 134 -165 165 l-50 25 -1826 3 -1826 2 -34 -23z"/>
</g>
</svg>
