<?xml version="1.0" encoding="iso-8859-1"?>
<!-- Generator: Adobe Illustrator 18.0.0, SVG Export Plug-In . SVG Version: 6.00 Build 0)  -->
<!DOCTYPE svg PUBLIC "-//W3C//DTD SVG 1.1//EN" "http://www.w3.org/Graphics/SVG/1.1/DTD/svg11.dtd">
<svg version="1.1" id="Capa_1" xmlns="http://www.w3.org/2000/svg" xmlns:xlink="http://www.w3.org/1999/xlink" x="0px" y="0px" width="24px" height="24px"
	 viewBox="0 0 482.14 482.14" style="enable-background:new 0 0 482.14 482.14;" xml:space="preserve" fill="#B5B5BD">
<g>
	<path d="M302.597,0H108.966C80.66,0,57.651,23.026,57.651,51.315v379.509c0,28.289,23.009,51.316,51.315,51.316h264.206
		c28.273,0,51.316-23.026,51.316-51.316V121.449L302.597,0z M373.172,450.698H108.966c-10.97,0-19.89-8.905-19.89-19.874V51.315
		c0-10.953,8.92-19.858,19.89-19.858l181.874-0.188v67.217c0,19.653,15.949,35.604,35.587,35.604l65.878-0.189l0.727,296.925
		C393.032,441.793,384.142,450.698,373.172,450.698z"/>
	<path d="M232.497,91.228c0-4.654-3.774-8.429-8.429-8.429h-97.47c-4.655,0-8.429,3.775-8.429,8.429v97.459
		c0,4.654,3.774,8.429,8.429,8.429h97.47c4.655,0,8.429-3.774,8.429-8.429V91.228z"/>
	<path d="M232.497,412.747c0,4.656,3.774,8.43,8.429,8.43h113.587c4.655,0,8.429-3.773,8.429-8.43V323.47
		c0-4.655-3.774-8.429-8.429-8.429H240.926c-4.655,0-8.429,3.774-8.429,8.429V412.747z M256.703,339.249h82.033v57.723h-82.033
		V339.249z"/>
	<path d="M344.111,216.862H131.629c-6.683,0-12.103,5.421-12.103,12.104c0,6.683,5.421,12.104,12.103,12.104h212.482
		c6.683,0,12.103-5.421,12.103-12.104C356.214,222.283,350.793,216.862,344.111,216.862z"/>
	<path d="M260.739,192.654h83.372c6.683,0,12.103-5.421,12.103-12.104c0-6.683-5.421-12.104-12.103-12.104h-83.372
		c-6.684,0-12.105,5.421-12.105,12.104C248.634,187.233,254.055,192.654,260.739,192.654z"/>
	<path d="M344.111,265.277H131.629c-6.683,0-12.103,5.421-12.103,12.104c0,6.683,5.421,12.104,12.103,12.104h212.482
		c6.683,0,12.103-5.421,12.103-12.104C356.214,270.698,350.793,265.277,344.111,265.277z"/>
	<path d="M198.863,313.693h-67.233c-6.683,0-12.103,5.421-12.103,12.104c0,6.684,5.421,12.104,12.103,12.104h67.233
		c6.683,0,12.105-5.421,12.105-12.104C210.967,319.114,205.546,313.693,198.863,313.693z"/>
	<path d="M198.863,362.109h-67.233c-6.683,0-12.103,5.421-12.103,12.103c0,6.683,5.421,12.104,12.103,12.104h67.233
		c6.683,0,12.105-5.421,12.105-12.104C210.967,367.53,205.546,362.109,198.863,362.109z"/>
</g>
<g>
</g>
<g>
</g>
<g>
</g>
<g>
</g>
<g>
</g>
<g>
</g>
<g>
</g>
<g>
</g>
<g>
</g>
<g>
</g>
<g>
</g>
<g>
</g>
<g>
</g>
<g>
</g>
<g>
</g>
</svg>
