<?xml version="1.0" standalone="no"?>
<!DOCTYPE svg PUBLIC "-//W3C//DTD SVG 20010904//EN"
 "http://www.w3.org/TR/2001/REC-SVG-20010904/DTD/svg10.dtd">
<svg version="1.0" xmlns="http://www.w3.org/2000/svg"
 width="120.000000pt" height="120.000000pt" viewBox="0 0 120.000000 120.000000"
 preserveAspectRatio="xMidYMid meet">

<g transform="translate(0.000000,120.000000) scale(0.100000,-0.100000)"
fill="#b5b5bd" stroke="none">
<path d="M575 1160 c-19 -37 -30 -38 -51 -5 -23 35 -41 31 -59 -11 l-15 -36
-35 22 -35 21 -9 -23 c-5 -13 -12 -31 -15 -42 -4 -13 -11 -16 -24 -11 -9 4
-27 10 -40 12 -20 5 -22 2 -22 -36 l0 -41 -45 7 -46 6 7 -41 6 -41 -38 -3
c-34 -3 -39 -6 -36 -25 1 -13 3 -33 5 -45 1 -18 -4 -24 -26 -26 -35 -4 -44
-24 -23 -54 22 -31 21 -36 -20 -53 -30 -12 -34 -17 -25 -34 6 -10 17 -21 26
-25 24 -9 18 -30 -15 -49 -17 -10 -30 -22 -30 -27 0 -5 13 -17 30 -27 33 -19
39 -40 15 -49 -9 -4 -20 -15 -26 -25 -9 -17 -5 -22 25 -34 41 -17 42 -22 20
-53 -21 -30 -12 -50 23 -54 22 -2 27 -8 26 -25 -2 -13 -4 -33 -5 -45 -3 -20 2
-23 32 -24 35 0 35 -1 33 -44 l-2 -43 44 7 45 6 0 -41 c0 -44 0 -45 68 -24 18
6 22 4 22 -14 0 -12 5 -31 11 -42 10 -20 10 -20 45 1 l34 22 15 -36 c18 -42
36 -46 59 -11 21 33 32 32 51 -5 20 -38 36 -38 58 0 22 37 32 37 53 5 22 -34
37 -31 57 11 l17 35 35 -21 35 -22 10 27 c5 14 10 33 10 42 0 11 6 14 23 8 67
-21 67 -20 67 24 l0 41 45 -6 44 -7 -2 43 c-2 43 -2 44 33 44 30 1 35 4 33 24
-2 12 -4 32 -5 45 -2 17 3 23 25 25 35 4 44 24 23 54 -22 31 -21 36 19 52 38
16 39 38 4 57 -27 14 -23 32 11 52 17 10 30 22 30 27 0 5 -13 17 -30 27 -35
20 -38 38 -10 55 29 19 25 44 -10 57 -34 11 -38 26 -14 52 22 24 12 47 -23 51
-29 3 -30 8 -22 68 4 23 0 25 -35 28 l-38 3 6 41 7 41 -46 -6 -45 -7 0 41 c0
44 -1 45 -66 24 -18 -6 -22 -2 -28 29 -9 46 -20 52 -52 27 -31 -24 -37 -22
-54 19 -15 37 -34 38 -56 5 -21 -32 -30 -32 -49 5 -9 17 -22 30 -30 30 -8 0
-21 -13 -30 -30z m49 -86 c22 -21 3 -56 -27 -52 -25 3 -34 32 -17 53 16 19 25
19 44 -1z m-64 -79 c19 -19 38 -35 42 -35 4 0 25 16 46 35 37 33 41 34 78 24
83 -23 181 -94 235 -171 20 -28 20 -28 0 -74 -31 -69 -28 -81 27 -107 43 -20
47 -25 47 -57 0 -28 -4 -35 -25 -40 -19 -4 -26 -13 -28 -38 -7 -68 -93 -67
-106 1 -4 19 -18 47 -32 62 l-25 27 41 44 c31 34 40 51 40 80 0 50 -33 99 -84
123 -39 19 -60 21 -284 21 -140 0 -242 4 -242 9 0 28 171 127 226 130 5 1 25
-15 44 -34z m-350 -246 c9 -15 8 -24 -1 -35 -18 -22 -53 -13 -57 15 -6 40 39
56 58 20z m834 5 c22 -21 3 -56 -27 -52 -25 3 -34 32 -17 53 16 19 25 19 44
-1z m-734 -129 l0 -135 -64 0 -63 0 -7 38 c-3 20 -6 56 -6 79 0 40 2 43 44 61
53 24 59 33 46 66 -9 24 -8 26 20 26 l30 0 0 -135z m371 125 c23 -13 25 -55 3
-64 -9 -3 -51 -6 -95 -6 l-79 0 0 40 0 40 76 0 c41 0 84 -5 95 -10z m-22 -207
c14 -12 27 -42 37 -83 23 -99 37 -109 157 -112 l99 -3 -19 -23 c-17 -22 -22
-23 -62 -12 -53 14 -67 4 -76 -51 -8 -49 -29 -63 -113 -80 -72 -14 -162 -7
-221 17 -36 14 -42 21 -47 55 -11 64 -23 74 -75 61 -41 -11 -45 -10 -63 11
l-18 22 181 3 181 2 0 65 0 65 -55 0 -55 0 0 40 0 40 64 0 c46 0 70 -5 85 -17z
m-290 -287 c23 -28 -17 -68 -45 -45 -15 12 -19 41 -7 52 11 12 40 8 52 -7z
m522 -2 c9 -11 10 -20 2 -32 -13 -22 -43 -22 -56 -1 -24 38 25 68 54 33z"/>
</g>
</svg>
